<svg id="Icons" height="512" viewBox="0 0 74 74" width="512" xmlns="http://www.w3.org/2000/svg">
	 <style type="text/css">
		<![CDATA[
			.color {fill:#3081AC}
	   ]]>
	</style>
	<path class='color' d="m67 61h-60a5.006 5.006 0 0 1 -5-5v-13h2v13a3 3 0 0 0 3 3h60a3 3 0 0 0 3-3v-38a3 3 0 0 0 -3-3h-60a3 3 0 0 0 -3 3v21h-2v-21a5.006 5.006 0 0 1 5-5h60a5.006 5.006 0 0 1 5 5v38a5.006 5.006 0 0 1 -5 5z"/>
	<path class='color' d="m62 22h9v2h-9z"/>
	<path class='color' d="m3 22h55v2h-55z"/>
	<path class='color' d="m3 31h68v2h-68z"/>
	<path class='color' d="m8 54h21v2h-21z"/>
	<path class='color' d="m8 49h11v2h-11z"/>
	
</svg>